<mxfile host="app.diagrams.net" modified="2022-01-12T21:34:48.746Z" agent="5.0 (X11; Linux x86_64) AppleWebKit/537.36 (KHTML, like Gecko) Chrome/97.0.4692.71 Safari/537.36" etag="BqIvummzqWQlGO_AmGrn" version="16.2.4" type="github">
  <diagram id="cOCbs-jh-c50EmB0eTlF" name="Page-1">
    <mxGraphModel dx="1422" dy="772" grid="1" gridSize="10" guides="1" tooltips="1" connect="1" arrows="1" fold="1" page="1" pageScale="1" pageWidth="850" pageHeight="1100" math="0" shadow="0">
      <root>
        <mxCell id="0" />
        <mxCell id="1" parent="0" />
        <mxCell id="bS5NxsuhaWUW-pvhXR3X-1" value="Ssitemas integrados" style="swimlane;" vertex="1" parent="1">
          <mxGeometry x="110" y="100" width="520" height="380" as="geometry" />
        </mxCell>
        <mxCell id="bS5NxsuhaWUW-pvhXR3X-2" value="Gestao de conta" style="shape=folder;fontStyle=1;spacingTop=10;tabWidth=40;tabHeight=14;tabPosition=left;html=1;" vertex="1" parent="bS5NxsuhaWUW-pvhXR3X-1">
          <mxGeometry x="40" y="90" width="130" height="80" as="geometry" />
        </mxCell>
        <mxCell id="bS5NxsuhaWUW-pvhXR3X-6" style="rounded=0;orthogonalLoop=1;jettySize=auto;html=1;entryX=0;entryY=0;entryDx=130;entryDy=47;entryPerimeter=0;dashed=1;exitX=0;exitY=0;exitDx=0;exitDy=47;exitPerimeter=0;" edge="1" parent="bS5NxsuhaWUW-pvhXR3X-1" source="bS5NxsuhaWUW-pvhXR3X-3" target="bS5NxsuhaWUW-pvhXR3X-2">
          <mxGeometry relative="1" as="geometry" />
        </mxCell>
        <mxCell id="bS5NxsuhaWUW-pvhXR3X-3" value="Credito" style="shape=folder;fontStyle=1;spacingTop=10;tabWidth=40;tabHeight=14;tabPosition=left;html=1;" vertex="1" parent="bS5NxsuhaWUW-pvhXR3X-1">
          <mxGeometry x="320" y="90" width="130" height="80" as="geometry" />
        </mxCell>
        <mxCell id="bS5NxsuhaWUW-pvhXR3X-7" style="edgeStyle=none;rounded=0;orthogonalLoop=1;jettySize=auto;html=1;entryX=1.015;entryY=0.913;entryDx=0;entryDy=0;entryPerimeter=0;dashed=1;" edge="1" parent="bS5NxsuhaWUW-pvhXR3X-1" source="bS5NxsuhaWUW-pvhXR3X-4" target="bS5NxsuhaWUW-pvhXR3X-2">
          <mxGeometry relative="1" as="geometry" />
        </mxCell>
        <mxCell id="bS5NxsuhaWUW-pvhXR3X-4" value="antifraude" style="shape=folder;fontStyle=1;spacingTop=10;tabWidth=40;tabHeight=14;tabPosition=left;html=1;" vertex="1" parent="bS5NxsuhaWUW-pvhXR3X-1">
          <mxGeometry x="320" y="240" width="130" height="80" as="geometry" />
        </mxCell>
      </root>
    </mxGraphModel>
  </diagram>
</mxfile>
